<svg id="Capa_1" enable-background="new 0 0 513 513" height="512" viewBox="0 0 513 513" width="512" xmlns="http://www.w3.org/2000/svg" xmlns:xlink="http://www.w3.org/1999/xlink"><linearGradient id="SVGID_1_" gradientUnits="userSpaceOnUse" x1="256.003" x2="256.003" y1="88.5" y2="418.5"><stop offset=".00000083866" stop-color="#96d1f3"/><stop offset="1" stop-color="#ccfff4"/></linearGradient><linearGradient id="SVGID_2_" gradientUnits="userSpaceOnUse" x1="256.503" x2="256.503" y1="59.11" y2="505.5"><stop offset=".00000036422" stop-color="#a8abff"/><stop offset="1" stop-color="#fac8ff"/></linearGradient><linearGradient id="SVGID_3_" gradientUnits="userSpaceOnUse" x1="256.5" x2="256.5" y1="0" y2="513"><stop offset=".00000011981" stop-color="#174fa3"/><stop offset="1" stop-color="#b044af"/></linearGradient><g><g><circle cx="256.003" cy="253.5" fill="url(#SVGID_1_)" r="165"/><path d="m504.003 105.5v22h-100v-22c0-21.011 12.966-38.983 31.328-46.382 4.579 5.141 11.245 8.382 18.672 8.382s14.093-3.241 18.672-8.382c18.362 7.399 31.328 25.371 31.328 46.382zm-426.32-46.39h-.002c-4.579 5.146-11.248 8.39-18.678 8.39s-14.099-3.244-18.678-8.39h-.002c-18.36 7.4-31.32 25.38-31.32 46.39v22h100v-22c0-21.01-12.96-38.99-31.32-46.39zm395 378h-.002c-4.579 5.146-11.248 8.39-18.678 8.39s-14.099-3.244-18.678-8.39h-.002c-18.36 7.4-31.32 25.38-31.32 46.39v22h100v-22c0-21.01-12.96-38.99-31.32-46.39zm-395 0h-.002c-4.579 5.146-11.248 8.39-18.678 8.39s-14.099-3.244-18.678-8.39h-.002c-18.36 7.4-31.32 25.38-31.32 46.39v22h100v-22c0-21.01-12.96-38.99-31.32-46.39z" fill="url(#SVGID_2_)"/></g><path d="m483.499 56.123c1.923-4.146 3.004-8.76 3.004-13.623v-10c0-17.92-14.579-32.5-32.5-32.5s-32.5 14.58-32.5 32.5c.398 7.168-1.329 14.279 3.004 23.623-37.899 22.537-25.781 64.684-28.004 78.877h115c-2.244-14.323 9.908-56.332-28.004-78.877zm-46.996-23.623c0-9.649 7.851-17.5 17.5-17.5s17.5 7.851 17.5 17.5v10c0 9.649-7.851 17.5-17.5 17.5s-17.5-7.851-17.5-17.5zm60 87.5h-85c1.027-5.291-6.164-36.71 22.424-51.97 11.706 9.225 28.268 9.365 40.152 0 28.458 15.191 21.486 47.139 22.424 51.97zm-408.004-63.877c4.362-9.407 2.607-16.465 3.004-23.623 0-17.92-14.579-32.5-32.5-32.5s-32.5 14.58-32.5 32.5c.398 7.168-1.329 14.279 3.004 23.623-37.899 22.537-25.781 64.684-28.004 78.877h115c-2.244-14.323 9.908-56.332-28.004-78.877zm-46.996-23.623c0-9.649 7.851-17.5 17.5-17.5s17.5 7.851 17.5 17.5v10c0 9.649-7.851 17.5-17.5 17.5s-17.5-7.851-17.5-17.5zm60 87.5h-85c1.027-5.291-6.164-36.71 22.424-51.97 5.532 4.359 12.502 6.97 20.076 6.97s14.544-2.611 20.076-6.97c28.458 15.191 21.486 47.139 22.424 51.97zm381.996 314.123c4.362-9.407 2.607-16.465 3.004-23.623 0-17.92-14.579-32.5-32.5-32.5s-32.5 14.58-32.5 32.5v10c0 4.863 1.081 9.477 3.004 13.623-37.899 22.537-25.781 64.684-28.004 78.877h115c-2.244-14.323 9.908-56.332-28.004-78.877zm-46.996-23.623c0-9.649 7.851-17.5 17.5-17.5s17.5 7.851 17.5 17.5v10c0 9.649-7.851 17.5-17.5 17.5s-17.5-7.851-17.5-17.5zm60 87.5h-85c1.027-5.291-6.164-36.71 22.424-51.971 11.71 9.228 28.272 9.362 40.152 0 28.458 15.192 21.486 47.14 22.424 51.971zm-408.004-63.877c1.923-4.147 3.004-8.76 3.004-13.623v-10c0-17.92-14.579-32.5-32.5-32.5s-32.5 14.58-32.5 32.5v10c0 4.863 1.081 9.477 3.004 13.623-17.255 10.261-28.004 28.811-28.004 49.377v29.5h115c-2.244-14.323 9.908-56.332-28.004-78.877zm-46.996-23.623c0-9.649 7.851-17.5 17.5-17.5s17.5 7.851 17.5 17.5v10c0 9.649-7.851 17.5-17.5 17.5s-17.5-7.851-17.5-17.5zm60 87.5h-85v-14.5c0-15.876 8.665-30.126 22.424-37.471 11.71 9.228 28.272 9.362 40.152 0 28.458 15.192 21.486 47.14 22.424 51.971zm387.02-343.272c2.007 4.717 3.893 9.567 5.606 14.414l-14.143 4.999c-1.609-4.554-3.382-9.11-5.267-13.541zm-18.657 202.368c21.881-45.095 27.994-94.407 20.772-140.726l14.82-2.312c7.768 49.814.921 102.149-22.099 149.586zm18.093-155.016c-1.037-4.723-2.232-9.464-3.554-14.094l14.424-4.116c1.406 4.925 2.678 9.97 3.78 14.993zm-450.606-41.641c-19.713 46.272-23.272 96.278-13.924 141.581l-14.691 3.031c-10.001-48.47-6.03-101.558 14.815-150.491zm-20.513 174.441c-1.647-4.852-3.165-9.828-4.513-14.791l14.477-3.93c1.266 4.665 2.692 9.341 4.239 13.899zm11.72 28.599c-2.237-4.619-4.358-9.37-6.305-14.12l13.879-5.688c1.83 4.463 3.823 8.928 5.926 13.268zm117.948-320.874-6.926-13.305c4.557-2.373 9.243-4.63 13.927-6.711l6.09 13.709c-4.404 1.955-8.807 4.078-13.091 6.307zm26.548-11.791-5.229-14.06c74.047-27.533 161.362-19.659 231.277 28.624l-8.523 12.343c-65.991-45.572-148.177-52.694-217.525-26.907zm-51.04 26.5-8.486-12.368c4.095-2.81 8.322-5.53 12.566-8.085l7.736 12.852c-3.99 2.401-7.966 4.959-11.816 7.601zm193.807 426.135 3.75 14.523c-62.487 16.137-129.54 7.762-185.685-23.331l7.268-13.122c52.866 29.278 115.976 37.087 174.667 21.93zm27.625-8.991 5.516 13.949c-4.775 1.888-9.67 3.65-14.547 5.237l-4.643-14.264c4.585-1.49 9.186-3.147 13.674-4.922zm26.299-12.338 7.199 13.159c-4.499 2.462-9.137 4.816-13.786 6.997l-6.371-13.579c4.369-2.05 8.729-4.263 12.958-6.577zm-113.744-381.12c-95.117 0-172.5 77.383-172.5 172.5s77.383 172.5 172.5 172.5 172.5-77.383 172.5-172.5-77.383-172.5-172.5-172.5zm-49.643 23.023c-7.745 7.854-14.898 17.627-21.271 29.183-3.838 6.959-7.302 14.407-10.378 22.262-8.718-5.273-16.97-11.426-24.644-18.418 16.085-14.646 35.206-26.006 56.293-33.027zm-66.902 43.643c9.329 8.568 19.445 15.999 30.181 22.23-7.252 23.137-11.393 49.075-12.042 76.104h-58.911c1.779-37.757 16.909-72.08 40.772-98.334zm-40.772 113.334h58.912c.696 29.028 5.427 56.79 13.707 81.184-10.19 5.755-19.837 12.576-28.79 20.409-25.621-26.642-41.975-62.251-43.829-101.593zm54.777 111.949c7.282-6.257 15.057-11.788 23.227-16.561 2.562 6.079 5.361 11.899 8.399 17.406 6.373 11.556 13.526 21.329 21.271 29.183-19.623-6.534-37.541-16.828-52.897-30.028zm95.04 37.396c-18.697-3.232-36.324-18.492-50.279-43.794-2.975-5.395-5.707-11.119-8.192-17.12 18.235-8.417 38.031-13.295 58.472-14.254v75.168zm0-90.177c-22.243.953-43.804 6.132-63.695 15.15-7.335-22.344-11.542-47.721-12.209-74.318h75.903v59.168zm0-74.168h-75.903c.615-24.528 4.243-48.014 10.557-69.045 20.311 9.473 42.425 14.902 65.346 15.876zm0-68.178c-21.254-.989-41.736-6.179-60.492-15.169 3-7.87 6.408-15.305 10.213-22.204 13.955-25.303 31.582-40.562 50.279-43.794zm164.817 68.178h-58.912c-.648-27.03-4.789-52.967-12.042-76.104 10.736-6.23 20.852-13.661 30.181-22.23 23.864 26.254 38.994 60.577 40.773 98.334zm-51.381-108.951c-7.674 6.992-15.926 13.145-24.644 18.418-3.076-7.854-6.54-15.303-10.378-22.262-6.373-11.556-13.526-21.329-21.271-29.183 21.086 7.022 40.208 18.382 56.293 33.027zm-98.436-40.394c18.697 3.232 36.324 18.492 50.279 43.794 3.805 6.899 7.212 14.334 10.213 22.204-18.756 8.989-39.238 14.179-60.492 15.169zm0 96.176c22.922-.974 45.036-6.403 65.346-15.876 6.313 21.031 9.942 44.517 10.557 69.045h-75.903zm0 68.169h75.903c-.667 26.597-4.873 51.974-12.209 74.318-19.89-9.017-41.452-14.197-63.695-15.15v-59.168zm0 149.345v-75.169c20.44.959 40.237 5.837 58.472 14.254-2.486 6.001-5.217 11.725-8.192 17.12-13.956 25.304-31.583 40.563-50.28 43.795zm42.143-7.368c10.236-10.379 20.789-25.521 29.67-46.589 8.17 4.772 15.944 10.304 23.227 16.561-15.356 13.2-33.274 23.494-52.897 30.028zm63.846-40.384c-8.953-7.833-18.6-14.654-28.79-20.409 8.28-24.393 13.01-52.156 13.707-81.184h58.912c-1.855 39.342-18.209 74.951-43.829 101.593z" fill="url(#SVGID_3_)"/></g></svg>