<svg id="Capa_1" enable-background="new 0 0 511.714 511.714" height="512" viewBox="0 0 511.714 511.714" width="512" xmlns="http://www.w3.org/2000/svg" xmlns:xlink="http://www.w3.org/1999/xlink"><linearGradient id="SVGID_1_" gradientUnits="userSpaceOnUse" x1="29" x2="29" y1="304.506" y2="434.506"><stop offset=".00000083866" stop-color="#96d1f3"/><stop offset="1" stop-color="#ccfff4"/></linearGradient><linearGradient id="SVGID_2_" gradientUnits="userSpaceOnUse" x1="118" x2="118" y1="72.506" y2="222.506"><stop offset=".00000036422" stop-color="#a8abff"/><stop offset="1" stop-color="#fac8ff"/></linearGradient><linearGradient id="SVGID_3_" gradientUnits="userSpaceOnUse" x1="255.857" x2="255.857" y1="30.006" y2="481.708"><stop offset=".00000011981" stop-color="#174fa3"/><stop offset="1" stop-color="#b044af"/></linearGradient><g><g><path d="m500.715 343.097c-14.107-19.75-37.737-25.862-59.044-14.24l-94.671 51.639 1-5c0-13.255-10.745-24-24-24h-72.701s-11.383-24.827-20.573-31.246c-48.328-44.218-139.698 3.668-139.698 3.668h-33.028v91.109h52.515l184.85 58.479 205.635-130.01z" fill="#fff"/><path d="m465 107.506h-244.53c-16.034-40.935-55.92-70-102.47-70-60.655 0-110 49.345-110 110s49.345 110 110 110c46.55 0 86.436-29.065 102.47-70h33.53l26-20 30 20 32-20 33 20 31-30 36 30h23l36-40z" fill="#fff"/><path d="m0 304.506h58v130h-58z" fill="url(#SVGID_1_)"/><circle cx="118" cy="147.506" fill="url(#SVGID_2_)" r="75"/></g><path d="m118 265.006c24.071 0 47.227-7.26 66.962-20.993 17.851-12.422 31.772-29.291 40.504-49.007h31.085l23.762-18.278 29.557 19.705 32.191-20.12 33.999 20.605 30.314-29.337 32.91 27.425h29.056l42.75-47.5-42.75-47.5h-242.874c-8.731-19.716-22.653-36.585-40.504-49.007-19.735-13.733-42.891-20.993-66.962-20.993-64.79 0-117.5 52.71-117.5 117.5s52.71 117.5 117.5 117.5zm0-220c41.829 0 80.202 26.216 95.486 65.235l1.866 4.765h246.308l29.25 32.5-29.25 32.5h-16.944l-39.09-32.575-31.686 30.663-32.001-19.395-31.809 19.88-30.443-20.295-28.238 21.722h-36.097l-1.866 4.765c-15.284 39.02-53.657 65.235-95.486 65.235-56.519 0-102.5-45.981-102.5-102.5s45.981-102.5 102.5-102.5zm388.817 293.731c-16.589-23.225-44.212-29.843-68.738-16.464l-83.526 45.56c-3.432-13.677-15.826-23.837-30.553-23.837h-67.975c-4.009-8.097-12.366-23.519-20.568-29.58-48.516-43.862-132.836-4.662-146.226 2.003h-23.731v-19.413h-65.5v15h50.5v115h-50.5v15h65.5v-19.479h43.857l187.069 59.181 215.287-136.112zm-212.513 126.567-181.526-57.427-1.104-.35h-46.174v-76.108h27.374l1.635-.857c.866-.453 87.214-44.978 131.154-4.777l.364.333.404.283c5.171 3.61 13.668 18.678 18.051 28.224l2.007 4.372h77.511c9.098 0 16.5 7.402 16.5 16.5s-7.402 16.5-16.5 16.5h-102v15h102c13.965 0 25.83-9.138 29.947-21.746l91.316-49.809c15.617-8.518 32.426-5.951 44.525 6.27zm-208.804-333.798c0-12.958 10.542-23.5 23.5-23.5h1.5v-14.5h15v14.5h17.5v15h-34c-4.687 0-8.5 3.813-8.5 8.5s3.813 8.5 8.5 8.5h18c12.958 0 23.5 10.542 23.5 23.5s-10.542 23.5-23.5 23.5h-1.5v14.5h-15v-14.5h-17.5v-15h34c4.687 0 8.5-3.813 8.5-8.5s-3.813-8.5-8.5-8.5h-18c-12.958 0-23.5-10.542-23.5-23.5zm32.5 98.5c45.49 0 82.5-37.01 82.5-82.5s-37.01-82.5-82.5-82.5-82.5 37.01-82.5 82.5 37.01 82.5 82.5 82.5zm0-150c37.22 0 67.5 30.28 67.5 67.5s-30.28 67.5-67.5 67.5-67.5-30.28-67.5-67.5 30.28-67.5 67.5-67.5z" fill="url(#SVGID_3_)"/></g></svg>