<svg id="Capa_1" enable-background="new 0 0 511.5 511.5" height="512" viewBox="0 0 511.5 511.5" width="512" xmlns="http://www.w3.org/2000/svg" xmlns:xlink="http://www.w3.org/1999/xlink"><linearGradient id="SVGID_1_" gradientUnits="userSpaceOnUse" x1="177.5" x2="177.5" y1="95.5" y2="312.5"><stop offset=".00000036422" stop-color="#a8abff"/><stop offset="1" stop-color="#fac8ff"/></linearGradient><linearGradient id="SVGID_2_" gradientUnits="userSpaceOnUse" x1="255.5" x2="255.5" y1="7.5" y2="503.5"><stop offset=".00000083866" stop-color="#96d1f3"/><stop offset="1" stop-color="#ccfff4"/></linearGradient><linearGradient id="SVGID_3_" gradientUnits="userSpaceOnUse" x1="255.75" x2="255.75" y1="0" y2="511.5"><stop offset=".00000011981" stop-color="#174fa3"/><stop offset="1" stop-color="#b044af"/></linearGradient><g><g><path d="m269.911 275.817c-24.171 22.732-56.69 36.683-92.411 36.683s-68.24-13.951-92.411-36.683c13.137-20.3 32.785-35.985 55.983-44.126 9.703 8.587 22.452 13.81 36.428 13.81 13.976 0 26.726-5.222 36.428-13.81 23.198 8.141 42.845 23.826 55.983 44.126zm-37.411-160.317c0-11.046-8.954-20-20-20h-100l10 44h110z" fill="url(#SVGID_1_)"/><path d="m490.32 490.32c-17.574 17.574-46.066 17.574-63.64 0l-130.815-130.815 63.64-63.64 130.815 130.815c17.573 17.574 17.573 46.066 0 63.64zm-142.82-312.82c0 93.888-76.112 170-170 170s-170-76.112-170-170 76.112-170 170-170 170 76.112 170 170zm-35 0c0-74.439-60.561-135-135-135s-135 60.561-135 135 60.561 135 135 135 135-60.561 135-135zm166-134c0-16.542-13.458-30-30-30s-30 13.458-30 30 13.458 30 30 30 30-13.458 30-30zm25 187c0-16.542-13.458-30-30-30s-30 13.458-30 30 13.458 30 30 30 30-13.458 30-30zm-430 218c0-16.542-13.458-30-30-30s-30 13.458-30 30 13.458 30 30 30 30-13.458 30-30zm187 25c0-16.542-13.458-30-30-30s-30 13.458-30 30 13.458 30 30 30 30-13.458 30-30z" fill="url(#SVGID_2_)"/><path d="m177.5 245.5c-30.376 0-55-24.624-55-55v-51h110v51c0 30.376-24.624 55-55 55z" fill="#fff"/></g><path d="m162 189.5h-15v-15h15zm46-15h-15v15h15zm112 3c0 78.575-63.925 142.5-142.5 142.5s-142.5-63.925-142.5-142.5 63.925-142.5 142.5-142.5 142.5 63.925 142.5 142.5zm-60.042 97.162c-11.365-15.365-26.921-27.396-44.642-34.445-22.573 17.211-53.496 16.878-75.632 0-17.721 7.048-33.277 19.079-44.642 34.445 22.247 18.909 51.041 30.338 82.458 30.338s60.211-11.429 82.458-30.338zm-34.958-142.662v-16.5c0-6.893-5.607-12.5-12.5-12.5h-90.604l6.591 29zm-95 15v43.5c0 26.191 21.309 47.5 47.5 47.5s47.5-21.309 47.5-47.5v-43.5zm47.5-97c-110.799 0-168.905 132.935-93.382 214.211 11.6-15.156 26.819-27.344 44.088-35.355-20.193-25.893-10.798-50.536-13.207-88.513l-11.895-52.343h109.396c15.164 0 27.5 12.337 27.5 27.5 0 78.31 3.799 91.549-13.207 113.355 17.269 8.012 32.488 20.199 44.088 35.355 75.468-81.215 17.537-214.21-93.381-214.21zm253.106 107h-76.797c1.438 12.443 1.532 24.201.506 36h30.066l26.5 30h25.873c3.484-17.096 18.635-30 36.745-30 20.678 0 37.5 16.822 37.5 37.5s-16.821 37.5-37.499 37.5c-18.11 0-33.261-12.904-36.745-30h-32.636l-26.5-30h-25.249c-4.748 27.3-15.755 52.474-31.482 73.996l20.941 20.941 17.678-17.678 136.118 136.118c20.52 20.52 20.517 53.729 0 74.246-20.52 20.52-53.73 20.517-74.246-.001l-136.12-136.117 17.678-17.678-20.941-20.94c-21.522 15.727-46.696 26.734-73.996 31.482v25.249l30 26.5v32.636c17.096 3.484 30 18.635 30 36.745 0 20.678-16.822 37.5-37.5 37.5s-37.5-16.821-37.5-37.499c0-18.11 12.904-33.261 30-36.745v-25.873l-30-26.5v-30.066c-11.824 1.028-23.583.928-36-.506v76.797l-35.5 35.5v45.393h-15v-51.606l35.5-35.5v-72.962c-13.63-2.778-26.693-7.131-39-12.846v58.88l-28.327 30.216c16.511 24.642-1.106 58.318-31.173 58.318-20.678 0-37.5-16.822-37.5-37.5 0-29.874 33.313-47.568 58.006-31.373l23.994-25.593v-60.806c-52.599-30.841-88-87.974-88-153.228 0-97.874 79.626-177.5 177.5-177.5 65.254 0 122.387 35.401 153.229 88h60.806l25.593-23.993c-16.208-24.711 1.514-58.007 31.372-58.007 20.678 0 37.5 16.822 37.5 37.5 0 30.138-33.747 47.636-58.318 31.173l-30.216 28.327h-58.88c5.715 12.307 10.068 25.37 12.846 39h72.962l35.5-35.5h51.606v15h-45.394zm-4.606-113.5c0 12.406 10.093 22.5 22.5 22.5s22.5-10.094 22.5-22.5-10.093-22.5-22.5-22.5-22.5 10.094-22.5 22.5zm-360 405c0-12.406-10.093-22.5-22.5-22.5s-22.5 10.094-22.5 22.5 10.093 22.5 22.5 22.5 22.5-10.094 22.5-22.5zm164.5 2.5c-12.407 0-22.5 10.094-22.5 22.5s10.093 22.5 22.5 22.5 22.5-10.094 22.5-22.5-10.093-22.5-22.5-22.5zm164.36-109.172-53.033 53.033 90.156 90.155c7.083 7.084 16.5 10.984 26.517 10.984 33.06 0 50.258-40.277 26.517-64.016zm-88.388 17.677 24.749 24.749 53.033-53.033-24.749-24.749c-6.875 6.875-47.44 47.439-53.033 53.033zm5.009-65.702c-5.473 6.297-11.381 12.205-17.678 17.678l19.74 19.74 17.678-17.678zm-133.981-278.803c-89.603 0-162.5 72.897-162.5 162.5s72.897 162.5 162.5 162.5c36.507 0 70.238-12.104 97.398-32.505l32.6-32.6c79.647-106.04 4.223-259.895-129.998-259.895zm273.5 215.5c0 12.406 10.093 22.5 22.5 22.5s22.5-10.094 22.5-22.5-10.093-22.5-22.5-22.5-22.5 10.094-22.5 22.5z" fill="url(#SVGID_3_)"/></g></svg>