<svg id="Capa_1" enable-background="new 0 0 511 511" height="512" viewBox="0 0 511 511" width="512" xmlns="http://www.w3.org/2000/svg" xmlns:xlink="http://www.w3.org/1999/xlink"><linearGradient id="SVGID_1_" gradientUnits="userSpaceOnUse" x1="255.5" x2="255.5" y1="274.75" y2="510.75"><stop offset=".00000083866" stop-color="#96d1f3"/><stop offset="1" stop-color="#ccfff4"/></linearGradient><linearGradient id="SVGID_2_" gradientUnits="userSpaceOnUse" x1="255.5" x2="255.5" y1="7.75" y2="237.75"><stop offset=".00000036422" stop-color="#a8abff"/><stop offset="1" stop-color="#fac8ff"/></linearGradient><linearGradient id="SVGID_3_" gradientUnits="userSpaceOnUse" x1="255.5" x2="255.5" y1=".25" y2="510.75"><stop offset=".00000011981" stop-color="#174fa3"/><stop offset="1" stop-color="#b044af"/></linearGradient><g><g><path d="m503.5 461.75v49h-160-16-144-16-160v-49c0-39.678 26.261-73.217 62.349-84.198 6.392 6.885 15.516 11.198 25.651 11.198 10.135 0 19.259-4.313 25.651-11.198 24.182 7.358 43.936 24.854 54.349 47.529 10.413-22.676 30.167-40.171 54.349-47.529 6.392 6.885 15.516 11.198 25.651 11.198 10.135 0 19.259-4.313 25.651-11.198 24.182 7.358 43.936 24.854 54.349 47.529 10.413-22.676 30.167-40.171 54.349-47.529 6.392 6.885 15.516 11.198 25.651 11.198 10.135 0 19.259-4.313 25.651-11.198 36.088 10.981 62.349 44.52 62.349 84.198zm-41-187h-62c-11.046 0-20 8.954-20 20v20h70zm-332 40v-20c0-11.046-8.954-20-20-20h-62l12 40zm160 0 10-40h-90l10 40z" fill="url(#SVGID_1_)"/><path d="m40.5 7.75v200h42l16 30 67-30h50l40 30 40-30h50l67 30 16-30h42v-200z" fill="url(#SVGID_2_)"/><g fill="#fff"><path d="m280.5 140.735v1.015 41h-50v-41-1.015c-17.804-9.105-30-27.615-30-48.985 0-30.376 24.624-55 55-55s55 24.624 55 55c0 21.37-12.196 39.88-30 48.985z"/><path d="m415.5 388.75c19.33 0 35-15.67 35-35v-39h-70v39c0 19.33 15.67 35 35 35z"/><path d="m95.5 388.75c-19.33 0-35-15.67-35-35v-39h70v39c0 19.33-15.67 35-35 35z"/><path d="m255.5 388.75c-19.33 0-35-15.67-35-35v-39h70v39c0 19.33-15.67 35-35 35z"/></g></g><path d="m452.914 373.892c8.13-15.041 3.957-26.172 5.086-58.042l14.58-48.6h-72.08c-15.164 0-27.5 12.337-27.5 27.5v12.5c1.223 40.326-3.177 51.327 5.073 66.616-17.425 7.421-32.247 19.888-42.579 35.729-10.78-16.465-25.887-28.554-42.58-35.703 8.131-15.042 3.954-26.14 5.086-58.219l12.106-48.424h-109.212l12.106 48.425c1.144 32.41-3.01 43.241 5.086 58.219-16.666 7.138-31.785 19.215-42.58 35.703-10.332-15.842-25.154-28.308-42.579-35.729 3.233-5.992 5.073-12.843 5.073-20.116 0-6.89 0-52.552 0-59 0-15.163-12.336-27.5-27.5-27.5h-72.08l14.58 48.599c1.144 32.277-3 43.083 5.086 58.042-34.519 14.784-58.086 48.662-58.086 87.858v49h15v-49c0-34.253 21.117-64.13 52.973-75.658 15.894 13.549 39.171 13.548 55.065-.009 19.116 6.951 34.926 20.958 44.192 39.139-11.056 26.649-5.868 44.749-7.229 85.528h15v-49c0-34.253 21.117-64.13 52.973-75.658 15.893 13.548 39.163 13.547 55.055 0 31.854 11.528 52.971 41.405 52.971 75.658v49h15c-1.359-40.688 3.833-58.863-7.229-85.528 9.266-18.181 25.076-32.188 44.192-39.139 15.89 13.553 39.167 13.561 55.065.009 31.855 11.528 52.972 41.405 52.972 75.658v49h15v-49c0-39.087-23.468-73.032-58.086-87.858zm-329.914-20.142c0 15.163-12.336 27.5-27.5 27.5s-27.5-12.337-27.5-27.5v-31.5h55zm0-46.5h-56.92l-7.5-25h51.92c6.893 0 12.5 5.607 12.5 12.5zm160 46.5c0 15.163-12.336 27.5-27.5 27.5s-27.5-12.337-27.5-27.5v-31.5h55zm1.644-46.5h-58.288l-6.25-25h70.788zm158.356 46.5c0 15.163-12.336 27.5-27.5 27.5s-27.5-12.337-27.5-27.5v-31.5h55zm1.92-46.5h-56.92v-12.5c0-6.893 5.607-12.5 12.5-12.5h51.92zm8.08 145.5h15v58h-15zm-88 0h15v58h-15zm-322 0h15v58h-15zm88 0h15v58h-15zm72 0h15v58h-15zm90 0h15v58h-15zm-197.824-205.294 71.926-32.206h45.898l42.5 31.875 42.5-31.875h45.897l71.926 32.206 17.177-32.206h45v-215h-445v215h45zm-47.176-232.206h415v185h-39l-14.824 27.794-62.074-27.794h-54.102l-37.5 28.125-37.5-28.125h-54.103l-62.074 27.794-14.823-27.794h-39zm175 129.88v45.12h65v-45.12c53.868-32.737 30.348-115.88-32.5-115.88-62.811 0-86.413 83.116-32.5 115.88zm50 30.12h-35v-26h35zm-17.5-131c49.464 0 66.061 67.064 21.585 89.807l-.378.193h-13.707v-29h17.5v-15h-50v15h17.5v29h-13.707l-.378-.193c-44.394-22.702-28.01-89.807 21.585-89.807zm-84 55h-36v-15h36zm2.697 19.196 10.606 10.607-24 24-10.606-10.607zm0-53.392-24-24 10.606-10.607 24 24zm165.303 19.196h36v15h-36zm10.697 68.804-24-24 10.606-10.607 24 24zm-13.394-88-10.606-10.607 24-24 10.606 10.607z" fill="url(#SVGID_3_)"/></g></svg>